<svg id="svg" version="1.1" xmlns="http://www.w3.org/2000/svg" xmlns:xlink="http://www.w3.org/1999/xlink" width="400" height="400" viewBox="0, 0, 400,400"><g id="svgg"><path id="path0" d="M290.400 0.375 C 290.400 0.701,262.685 65.574,215.540 175.600 C 207.857 193.530,201.308 208.463,200.986 208.786 C 200.471 209.300,200.399 201.035,200.394 140.986 C 200.391 103.374,200.244 72.373,200.068 72.096 C 199.816 71.700,195.808 71.614,181.374 71.696 L 163.000 71.800 162.897 97.378 C 162.817 117.231,162.683 123.027,162.297 123.272 C 161.723 123.637,120.651 123.710,119.303 123.349 L 118.406 123.108 118.303 97.454 L 118.200 71.800 99.826 71.696 C 85.392 71.614,81.384 71.700,81.132 72.096 C 80.956 72.373,80.809 103.695,80.806 141.700 L 80.800 210.800 99.597 210.800 L 118.395 210.800 118.497 182.500 L 118.600 154.200 140.600 154.200 L 162.600 154.200 162.703 182.434 L 162.805 210.669 191.669 210.934 C 207.544 211.080,225.441 211.200,231.441 211.200 L 242.349 211.200 243.554 215.100 C 244.216 217.245,245.411 221.250,246.209 224.000 C 247.712 229.176,249.763 236.176,254.005 250.600 C 255.363 255.220,257.159 261.340,257.996 264.200 C 258.832 267.060,260.636 273.180,262.003 277.800 C 263.371 282.420,265.041 288.135,265.716 290.500 C 267.496 296.745,266.301 299.591,275.749 266.600 C 279.152 254.720,284.110 237.445,286.768 228.212 C 289.426 218.978,291.600 211.373,291.600 211.312 C 291.600 211.250,301.410 211.200,313.400 211.200 L 335.200 211.200 335.200 270.757 C 335.200 324.697,335.140 330.337,334.567 330.557 C 333.436 330.991,306.406 330.832,305.574 330.386 C 304.295 329.702,304.546 273.884,305.932 250.700 C 306.295 244.630,306.146 244.756,304.047 252.301 C 303.083 255.765,300.978 263.280,299.370 269.000 C 297.762 274.720,294.905 284.890,293.023 291.600 C 291.140 298.310,287.955 309.650,285.946 316.800 C 283.835 324.313,282.030 330.011,281.670 330.300 C 280.953 330.875,252.185 331.032,251.293 330.466 C 251.014 330.289,248.177 320.977,244.989 309.772 C 241.801 298.567,238.934 288.500,238.618 287.400 C 238.303 286.300,235.577 276.670,232.561 266.000 C 227.380 247.665,225.970 243.347,226.554 247.600 C 228.069 258.638,228.769 330.019,227.367 330.557 C 225.953 331.100,199.717 330.823,199.250 330.261 C 198.926 329.870,198.775 313.967,198.701 272.440 L 198.600 215.159 159.324 306.879 C 137.722 357.326,119.928 398.915,119.781 399.300 C 119.527 399.966,126.358 400.000,259.757 400.000 L 400.000 400.000 400.000 200.000 L 400.000 0.000 345.200 0.000 C 311.389 0.000,290.400 0.144,290.400 0.375 " stroke="none" fill="#5c4435" fill-rule="evenodd"></path><path id="path1" d="M0.000 200.000 L 0.000 400.000 59.600 400.000 C 116.726 400.000,119.200 399.970,119.200 399.280 C 119.200 398.884,119.351 398.389,119.536 398.180 C 119.721 397.971,120.112 397.170,120.406 396.400 C 120.700 395.630,121.449 393.870,122.070 392.490 C 122.692 391.109,123.200 389.899,123.200 389.800 C 123.200 389.701,123.740 388.441,124.400 387.000 C 125.060 385.559,125.600 384.299,125.600 384.200 C 125.600 384.101,126.140 382.841,126.800 381.400 C 127.460 379.959,128.000 378.699,128.000 378.600 C 128.000 378.501,128.540 377.241,129.200 375.800 C 129.860 374.359,130.400 373.099,130.400 373.000 C 130.400 372.901,130.940 371.641,131.600 370.200 C 132.260 368.759,132.800 367.499,132.800 367.400 C 132.800 367.301,133.340 366.041,134.000 364.600 C 134.660 363.159,135.200 361.899,135.200 361.800 C 135.200 361.701,135.740 360.441,136.400 359.000 C 137.060 357.559,137.600 356.299,137.600 356.200 C 137.600 356.101,138.140 354.841,138.800 353.400 C 139.460 351.959,140.000 350.699,140.000 350.600 C 140.000 350.501,140.540 349.241,141.200 347.800 C 141.860 346.359,142.400 345.099,142.400 345.000 C 142.400 344.901,142.940 343.641,143.600 342.200 C 144.260 340.759,144.800 339.499,144.800 339.400 C 144.800 339.301,145.340 338.041,146.000 336.600 C 146.660 335.159,147.200 333.899,147.200 333.800 C 147.200 333.701,147.740 332.441,148.400 331.000 C 149.060 329.559,149.600 328.299,149.600 328.200 C 149.600 328.101,150.140 326.841,150.800 325.400 C 151.460 323.959,152.000 322.699,152.000 322.600 C 152.000 322.501,152.540 321.241,153.200 319.800 C 153.860 318.359,154.400 317.100,154.400 317.002 C 154.400 316.904,154.850 315.840,155.400 314.637 C 155.950 313.435,156.400 312.362,156.400 312.254 C 156.400 312.145,156.940 310.889,157.600 309.463 C 158.260 308.037,158.800 306.777,158.800 306.663 C 158.800 306.549,159.340 305.289,160.000 303.863 C 160.660 302.437,161.200 301.177,161.200 301.063 C 161.200 300.949,161.740 299.689,162.400 298.263 C 163.060 296.837,163.600 295.577,163.600 295.463 C 163.600 295.349,164.140 294.089,164.800 292.663 C 165.460 291.237,166.000 289.977,166.000 289.863 C 166.000 289.749,166.540 288.489,167.200 287.063 C 167.860 285.637,168.400 284.377,168.400 284.263 C 168.400 284.149,168.911 282.918,169.535 281.528 C 170.160 280.138,176.955 264.287,184.635 246.304 C 192.316 228.322,198.780 213.667,199.000 213.738 C 199.264 213.823,199.435 233.664,199.501 271.933 L 199.603 330.000 213.601 330.000 L 227.600 330.000 227.579 303.700 C 227.568 289.235,227.399 273.350,227.204 268.400 C 226.878 260.129,226.097 246.534,225.888 245.488 C 225.840 245.246,226.104 244.981,226.476 244.899 C 227.148 244.752,227.387 245.380,229.255 252.200 C 229.496 253.080,229.831 254.250,230.000 254.800 C 230.169 255.350,230.508 256.520,230.753 257.400 C 230.999 258.280,234.440 270.430,238.400 284.400 C 242.360 298.370,245.801 310.520,246.047 311.400 C 246.292 312.280,246.631 313.450,246.800 314.000 C 246.969 314.550,247.329 315.810,247.600 316.800 C 247.871 317.790,248.234 319.050,248.406 319.600 C 248.578 320.150,249.302 322.715,250.016 325.300 L 251.313 330.000 266.440 330.000 L 281.566 330.000 282.413 327.100 C 283.201 324.401,284.209 320.820,285.255 317.000 C 285.496 316.120,285.833 314.950,286.005 314.400 C 286.177 313.850,287.621 308.720,289.214 303.000 C 291.619 294.363,297.292 274.123,298.800 268.800 C 300.231 263.748,304.860 247.188,305.117 246.203 C 305.288 245.544,305.734 244.947,306.108 244.875 C 306.855 244.731,306.821 249.186,305.977 261.875 C 305.770 264.996,305.600 281.601,305.600 298.775 L 305.600 330.000 320.000 330.000 L 334.400 330.000 334.400 270.796 L 334.400 211.593 313.306 211.696 L 292.213 211.800 291.069 215.600 C 289.950 219.314,289.650 220.344,288.855 223.200 C 288.641 223.970,285.736 234.050,282.400 245.600 C 275.476 269.573,275.772 268.545,275.255 270.400 C 268.646 294.141,267.280 297.889,266.360 294.800 C 266.196 294.250,264.981 290.110,263.659 285.600 C 260.693 275.473,255.432 257.575,251.167 243.100 C 250.049 239.305,248.984 235.660,248.800 235.000 C 248.616 234.340,247.716 231.280,246.800 228.200 C 245.884 225.120,244.984 222.060,244.800 221.400 C 244.616 220.740,243.911 218.310,243.233 216.001 C 242.555 213.691,242.000 211.756,242.000 211.701 C 242.000 211.645,224.495 211.598,203.100 211.595 C 181.705 211.592,163.796 211.481,163.303 211.349 L 162.405 211.108 162.303 182.854 L 162.200 154.600 140.800 154.600 L 119.400 154.600 119.300 182.600 C 119.208 208.359,119.146 210.640,118.523 211.100 C 117.748 211.674,81.790 211.836,80.899 211.270 C 80.500 211.016,80.418 196.732,80.499 141.176 L 80.600 71.400 99.574 71.296 C 114.488 71.214,118.616 71.300,118.868 71.696 C 119.044 71.973,119.191 83.585,119.194 97.500 L 119.200 122.800 140.800 122.800 L 162.400 122.800 162.400 97.000 L 162.400 71.200 181.600 71.200 L 200.800 71.200 200.800 139.480 C 200.800 177.991,200.951 207.594,201.146 207.380 C 201.337 207.171,204.331 200.340,207.799 192.200 C 211.267 184.060,214.531 176.450,215.053 175.288 C 215.574 174.127,216.000 173.096,216.000 172.998 C 216.000 172.900,216.540 171.641,217.200 170.200 C 217.860 168.759,218.400 167.499,218.400 167.400 C 218.400 167.301,218.940 166.041,219.600 164.600 C 220.260 163.159,220.800 161.899,220.800 161.800 C 220.800 161.701,221.340 160.441,222.000 159.000 C 222.660 157.559,223.200 156.299,223.200 156.200 C 223.200 156.101,223.740 154.841,224.400 153.400 C 225.060 151.959,225.600 150.699,225.600 150.600 C 225.600 150.501,226.140 149.241,226.800 147.800 C 227.460 146.359,228.000 145.099,228.000 145.000 C 228.000 144.901,228.540 143.641,229.200 142.200 C 229.860 140.759,230.400 139.499,230.400 139.400 C 230.400 139.301,230.940 138.041,231.600 136.600 C 232.260 135.159,232.800 133.899,232.800 133.800 C 232.800 133.701,233.340 132.441,234.000 131.000 C 234.660 129.559,235.200 128.299,235.200 128.200 C 235.200 128.101,235.740 126.841,236.400 125.400 C 237.060 123.959,237.600 122.699,237.600 122.600 C 237.600 122.501,238.140 121.241,238.800 119.800 C 239.460 118.359,240.000 117.099,240.000 117.000 C 240.000 116.901,240.540 115.641,241.200 114.200 C 241.860 112.759,242.400 111.499,242.400 111.400 C 242.400 111.301,242.940 110.041,243.600 108.600 C 244.260 107.159,244.800 105.899,244.800 105.800 C 244.800 105.701,245.340 104.441,246.000 103.000 C 246.660 101.559,247.200 100.299,247.200 100.200 C 247.200 100.101,247.740 98.841,248.400 97.400 C 249.060 95.959,249.600 94.699,249.600 94.600 C 249.600 94.501,250.140 93.241,250.800 91.800 C 251.460 90.359,252.000 89.099,252.000 89.000 C 252.000 88.901,252.540 87.641,253.200 86.200 C 253.860 84.759,254.400 83.499,254.400 83.400 C 254.400 83.301,254.940 82.041,255.600 80.600 C 256.260 79.159,256.800 77.899,256.800 77.800 C 256.800 77.701,257.340 76.441,258.000 75.000 C 258.660 73.559,259.200 72.299,259.200 72.200 C 259.200 72.101,259.740 70.841,260.400 69.400 C 261.060 67.959,261.600 66.699,261.600 66.600 C 261.600 66.501,262.140 65.241,262.800 63.800 C 263.460 62.359,264.000 61.099,264.000 61.000 C 264.000 60.901,264.540 59.641,265.200 58.200 C 265.860 56.759,266.400 55.499,266.400 55.400 C 266.400 55.301,266.940 54.041,267.600 52.600 C 268.260 51.159,268.800 49.899,268.800 49.800 C 268.800 49.701,269.340 48.441,270.000 47.000 C 270.660 45.559,271.200 44.299,271.200 44.200 C 271.200 44.101,271.740 42.841,272.400 41.400 C 273.060 39.959,273.600 38.699,273.600 38.600 C 273.600 38.501,274.140 37.241,274.800 35.800 C 275.460 34.359,276.000 33.099,276.000 33.000 C 276.000 32.901,276.540 31.641,277.200 30.200 C 277.860 28.759,278.400 27.499,278.400 27.400 C 278.400 27.301,278.940 26.041,279.600 24.600 C 280.260 23.159,280.800 21.899,280.800 21.800 C 280.800 21.701,281.340 20.441,282.000 19.000 C 282.660 17.559,283.200 16.299,283.200 16.200 C 283.200 16.101,283.740 14.841,284.400 13.400 C 285.060 11.959,285.600 10.699,285.600 10.600 C 285.600 10.501,286.140 9.241,286.800 7.800 C 287.460 6.359,288.000 5.100,288.000 5.002 C 288.000 4.904,288.450 3.840,289.000 2.637 C 289.550 1.435,290.000 0.350,290.000 0.226 C 290.000 0.102,224.750 0.000,145.000 0.000 L 0.000 0.000 0.000 200.000 " stroke="none" fill="#fbfbfb" fill-rule="evenodd"></path><path id="path2" d="M118.588 97.400 C 118.588 111.480,118.639 117.182,118.700 110.071 C 118.761 102.960,118.761 91.440,118.700 84.471 C 118.638 77.502,118.588 83.320,118.588 97.400 M118.589 182.800 C 118.589 198.310,118.639 204.655,118.700 196.900 C 118.761 189.145,118.761 176.455,118.700 168.700 C 118.639 160.945,118.589 167.290,118.589 182.800 M334.995 271.000 C 334.995 303.560,335.042 316.821,335.100 300.469 C 335.158 284.116,335.158 257.476,335.100 241.269 C 335.042 225.061,334.995 238.440,334.995 271.000 M305.389 302.000 C 305.389 317.510,305.439 323.855,305.500 316.100 C 305.561 308.345,305.561 295.655,305.500 287.900 C 305.439 280.145,305.389 286.490,305.389 302.000 " stroke="none" fill="#aa9c94" fill-rule="evenodd"></path><path id="path3" d="M81.067 71.467 C 80.920 71.613,80.803 71.928,80.806 72.167 C 80.810 72.418,80.947 72.387,81.135 72.092 C 81.389 71.691,85.332 71.607,99.890 71.692 C 110.029 71.751,118.240 71.665,118.138 71.500 C 117.909 71.129,81.437 71.097,81.067 71.467 M163.062 71.500 C 162.960 71.665,171.171 71.751,181.310 71.692 C 195.868 71.607,199.811 71.691,200.065 72.092 C 200.243 72.371,200.391 103.357,200.394 140.949 C 200.400 203.727,200.452 209.254,201.044 208.764 C 201.447 208.429,201.522 208.174,201.244 208.081 C 200.921 207.974,200.800 189.500,200.800 140.340 C 200.800 94.512,200.667 72.498,200.386 71.974 C 199.955 71.168,163.553 70.706,163.062 71.500 M162.588 97.800 C 162.588 111.880,162.639 117.582,162.700 110.471 C 162.761 103.360,162.761 91.840,162.700 84.871 C 162.638 77.902,162.588 83.720,162.588 97.800 M130.100 123.500 C 135.985 123.562,145.615 123.562,151.500 123.500 C 157.385 123.437,152.570 123.386,140.800 123.386 C 129.030 123.386,124.215 123.437,130.100 123.500 M118.664 154.297 C 118.561 154.463,128.358 154.552,140.435 154.493 L 162.395 154.387 162.497 182.693 L 162.600 211.000 181.800 211.006 L 201.000 211.012 181.903 210.902 L 162.805 210.792 162.703 182.496 L 162.600 154.200 140.726 154.097 C 128.695 154.040,118.767 154.130,118.664 154.297 M90.100 211.100 C 95.325 211.163,103.875 211.163,109.100 211.100 C 114.325 211.036,110.050 210.985,99.600 210.985 C 89.150 210.985,84.875 211.036,90.100 211.100 M198.701 258.700 C 198.756 283.285,198.849 309.430,198.906 316.800 C 198.964 324.170,199.054 304.055,199.106 272.100 C 199.157 240.145,199.065 214.000,198.900 214.000 C 198.735 214.000,198.645 234.115,198.701 258.700 M306.137 249.400 C 306.139 251.160,306.209 251.830,306.293 250.889 C 306.378 249.949,306.377 248.509,306.291 247.689 C 306.205 246.870,306.136 247.640,306.137 249.400 M281.029 247.829 C 280.881 248.415,280.838 248.972,280.932 249.066 C 281.027 249.160,281.224 248.758,281.371 248.171 C 281.519 247.585,281.562 247.028,281.468 246.934 C 281.373 246.840,281.176 247.242,281.029 247.829 M226.520 250.000 C 226.520 251.210,226.595 251.705,226.687 251.100 C 226.778 250.495,226.778 249.505,226.687 248.900 C 226.595 248.295,226.520 248.790,226.520 250.000 M280.229 250.629 C 280.081 251.215,280.038 251.772,280.132 251.866 C 280.227 251.960,280.424 251.558,280.571 250.971 C 280.719 250.385,280.762 249.828,280.668 249.734 C 280.573 249.640,280.376 250.042,280.229 250.629 M226.914 254.200 C 226.917 255.300,226.995 255.703,227.087 255.095 C 227.179 254.486,227.177 253.586,227.082 253.095 C 226.987 252.603,226.911 253.100,226.914 254.200 M305.731 255.400 C 305.733 256.940,305.805 257.521,305.892 256.691 C 305.979 255.861,305.977 254.601,305.889 253.891 C 305.800 253.181,305.729 253.860,305.731 255.400 M301.829 259.029 C 301.681 259.615,301.638 260.172,301.732 260.266 C 301.827 260.360,302.024 259.958,302.171 259.371 C 302.319 258.785,302.362 258.228,302.268 258.134 C 302.173 258.040,301.976 258.442,301.829 259.029 M227.337 262.600 C 227.339 264.360,227.409 265.030,227.493 264.089 C 227.578 263.149,227.577 261.709,227.491 260.889 C 227.405 260.070,227.336 260.840,227.337 262.600 M301.029 261.829 C 300.881 262.415,300.838 262.972,300.932 263.066 C 301.027 263.160,301.224 262.758,301.371 262.171 C 301.519 261.585,301.562 261.028,301.468 260.934 C 301.373 260.840,301.176 261.242,301.029 261.829 M305.358 268.600 C 305.358 271.680,305.421 272.887,305.497 271.282 C 305.573 269.678,305.573 267.158,305.496 265.682 C 305.419 264.207,305.357 265.520,305.358 268.600 M227.740 269.200 C 227.740 271.070,227.809 271.835,227.893 270.900 C 227.977 269.965,227.977 268.435,227.893 267.500 C 227.809 266.565,227.740 267.330,227.740 269.200 M304.893 302.676 C 304.842 317.678,304.935 330.036,305.100 330.138 C 305.372 330.307,305.369 310.651,305.092 285.200 C 305.033 279.810,304.944 287.674,304.893 302.676 M294.629 284.629 C 294.481 285.215,294.438 285.772,294.532 285.866 C 294.627 285.960,294.824 285.558,294.971 284.971 C 295.119 284.385,295.162 283.828,295.068 283.734 C 294.973 283.640,294.776 284.042,294.629 284.629 M264.056 285.600 C 264.056 285.930,264.211 286.560,264.400 287.000 C 264.617 287.504,264.744 287.578,264.744 287.200 C 264.744 286.870,264.589 286.240,264.400 285.800 C 264.183 285.296,264.056 285.222,264.056 285.600 M239.256 289.600 C 239.256 289.930,239.411 290.560,239.600 291.000 C 239.817 291.504,239.944 291.578,239.944 291.200 C 239.944 290.870,239.789 290.240,239.600 289.800 C 239.383 289.296,239.256 289.222,239.256 289.600 M240.056 292.400 C 240.056 292.730,240.211 293.360,240.400 293.800 C 240.617 294.304,240.744 294.378,240.744 294.000 C 240.744 293.670,240.589 293.040,240.400 292.600 C 240.183 292.096,240.056 292.022,240.056 292.400 M266.446 294.051 C 266.374 295.062,267.523 295.865,267.845 295.028 C 267.984 294.664,267.987 294.253,267.849 294.116 C 267.712 293.979,267.600 294.077,267.600 294.333 C 267.600 295.062,266.880 294.881,266.676 294.100 C 266.521 293.509,266.486 293.502,266.446 294.051 M240.856 295.200 C 240.856 295.530,241.011 296.160,241.200 296.600 C 241.417 297.104,241.544 297.178,241.544 296.800 C 241.544 296.470,241.389 295.840,241.200 295.400 C 240.983 294.896,240.856 294.822,240.856 295.200 M289.029 304.629 C 288.881 305.215,288.838 305.772,288.932 305.866 C 289.027 305.960,289.224 305.558,289.371 304.971 C 289.519 304.385,289.562 303.828,289.468 303.734 C 289.373 303.640,289.176 304.042,289.029 304.629 M288.229 307.429 C 288.081 308.015,288.038 308.572,288.132 308.666 C 288.227 308.760,288.424 308.358,288.571 307.771 C 288.719 307.185,288.762 306.628,288.668 306.534 C 288.573 306.440,288.376 306.842,288.229 307.429 M206.274 330.699 C 210.055 330.765,216.355 330.765,220.274 330.699 C 224.193 330.634,221.100 330.580,213.400 330.580 C 205.700 330.580,202.493 330.634,206.274 330.699 M258.900 330.699 C 263.025 330.764,269.775 330.764,273.900 330.699 C 278.025 330.634,274.650 330.581,266.400 330.581 C 258.150 330.581,254.775 330.634,258.900 330.699 M313.126 330.700 C 317.155 330.765,323.635 330.765,327.526 330.699 C 331.417 330.634,328.120 330.580,320.200 330.581 C 312.280 330.581,309.097 330.634,313.126 330.700 " stroke="none" fill="#a4948c" fill-rule="evenodd"></path><path id="path4" d="M80.585 71.700 C 80.480 71.975,80.441 103.520,80.497 141.800 L 80.600 211.400 80.800 141.300 C 80.910 102.745,80.949 71.200,80.887 71.200 C 80.826 71.200,80.689 71.425,80.585 71.700 M118.562 71.733 C 118.693 72.136,118.800 83.881,118.800 97.833 L 118.800 123.200 140.700 123.104 L 162.600 123.007 140.900 122.900 L 119.200 122.793 119.194 97.497 C 119.190 80.044,119.054 72.014,118.756 71.600 C 118.397 71.101,118.365 71.123,118.562 71.733 M118.705 182.780 C 118.647 198.389,118.733 211.028,118.895 210.865 C 119.281 210.479,119.490 154.400,119.105 154.400 C 118.943 154.400,118.763 167.171,118.705 182.780 M90.300 211.500 C 95.415 211.563,103.785 211.563,108.900 211.500 C 114.015 211.436,109.830 211.385,99.600 211.385 C 89.370 211.385,85.185 211.436,90.300 211.500 M202.578 211.499 C 233.284 211.581,241.832 211.712,242.108 212.102 C 242.368 212.469,242.418 212.442,242.297 212.000 C 242.153 211.472,237.418 211.400,202.767 211.397 L 163.400 211.394 202.578 211.499 M292.000 211.496 C 292.000 211.663,301.540 211.752,313.200 211.693 L 334.400 211.586 334.400 270.788 L 334.400 329.990 319.900 330.100 L 305.400 330.210 320.101 330.305 L 334.803 330.400 334.701 270.900 L 334.600 211.400 313.300 211.296 C 301.585 211.240,292.000 211.330,292.000 211.496 M198.790 213.863 C 199.067 214.001,199.200 232.910,199.200 272.238 L 199.200 330.410 213.500 330.305 L 227.800 330.200 227.897 304.000 C 227.950 289.590,227.860 275.190,227.697 272.000 C 227.533 268.810,227.464 280.555,227.541 298.100 L 227.682 330.000 213.643 330.000 L 199.603 330.000 199.501 271.933 C 199.420 225.257,199.300 213.846,198.890 213.763 C 198.610 213.706,198.565 213.751,198.790 213.863 M290.629 215.829 C 290.481 216.415,290.438 216.972,290.532 217.066 C 290.627 217.160,290.824 216.758,290.971 216.171 C 291.119 215.585,291.162 215.028,291.068 214.934 C 290.973 214.840,290.776 215.242,290.629 215.829 M225.913 245.100 C 225.839 245.265,225.890 246.300,226.026 247.400 L 226.274 249.400 226.337 247.100 C 226.395 244.987,226.256 244.334,225.913 245.100 M305.177 245.861 C 304.955 246.444,304.832 247.097,304.904 247.312 C 304.976 247.527,305.235 247.050,305.480 246.251 C 305.994 244.574,305.774 244.290,305.177 245.861 M306.514 246.600 C 306.517 247.700,306.595 248.103,306.687 247.495 C 306.779 246.886,306.777 245.986,306.682 245.495 C 306.587 245.003,306.511 245.500,306.514 246.600 M227.256 246.000 C 227.256 246.330,227.411 246.960,227.600 247.400 C 227.817 247.904,227.944 247.978,227.944 247.600 C 227.944 247.270,227.789 246.640,227.600 246.200 C 227.383 245.696,227.256 245.622,227.256 246.000 M228.056 248.800 C 228.056 249.130,228.211 249.760,228.400 250.200 C 228.617 250.704,228.744 250.778,228.744 250.400 C 228.744 250.070,228.589 249.440,228.400 249.000 C 228.183 248.496,228.056 248.422,228.056 248.800 M226.684 257.000 C 226.800 259.420,226.964 261.475,227.047 261.567 C 227.301 261.844,227.135 257.562,226.793 255.000 C 226.565 253.296,226.534 253.875,226.684 257.000 M305.800 259.200 C 305.639 262.303,305.595 264.929,305.702 265.035 C 305.809 265.142,306.027 262.690,306.187 259.587 C 306.347 256.483,306.391 253.857,306.285 253.751 C 306.179 253.645,305.961 256.097,305.800 259.200 M277.829 260.229 C 277.681 260.815,277.638 261.372,277.732 261.466 C 277.827 261.560,278.024 261.158,278.171 260.571 C 278.319 259.985,278.362 259.428,278.268 259.334 C 278.173 259.240,277.976 259.642,277.829 260.229 M277.029 263.029 C 276.881 263.615,276.838 264.172,276.932 264.266 C 277.027 264.360,277.224 263.958,277.371 263.371 C 277.519 262.785,277.562 262.228,277.468 262.134 C 277.373 262.040,277.176 262.442,277.029 263.029 M300.229 263.429 C 300.081 264.015,300.038 264.572,300.132 264.666 C 300.227 264.760,300.424 264.358,300.571 263.771 C 300.719 263.185,300.762 262.628,300.668 262.534 C 300.573 262.440,300.376 262.842,300.229 263.429 M299.429 266.229 C 299.281 266.815,299.238 267.372,299.332 267.466 C 299.427 267.560,299.624 267.158,299.771 266.571 C 299.919 265.985,299.962 265.428,299.868 265.334 C 299.773 265.240,299.576 265.642,299.429 266.229 M293.029 289.029 C 292.881 289.615,292.838 290.172,292.932 290.266 C 293.027 290.360,293.224 289.958,293.371 289.371 C 293.519 288.785,293.562 288.228,293.468 288.134 C 293.373 288.040,293.176 288.442,293.029 289.029 M264.856 289.600 C 264.856 289.930,265.011 290.560,265.200 291.000 C 265.417 291.504,265.544 291.578,265.544 291.200 C 265.544 290.870,265.389 290.240,265.200 289.800 C 264.983 289.296,264.856 289.222,264.856 289.600 M292.229 291.829 C 292.081 292.415,292.038 292.972,292.132 293.066 C 292.227 293.160,292.424 292.758,292.571 292.171 C 292.719 291.585,292.762 291.028,292.668 290.934 C 292.573 290.840,292.376 291.242,292.229 291.829 M266.468 295.200 C 266.713 295.941,268.000 296.245,268.000 295.563 C 268.000 295.290,267.882 295.185,267.737 295.330 C 267.592 295.475,267.203 295.370,266.872 295.097 C 266.379 294.690,266.306 294.709,266.468 295.200 M243.256 302.400 C 243.256 302.730,243.411 303.360,243.600 303.800 C 243.817 304.304,243.944 304.378,243.944 304.000 C 243.944 303.670,243.789 303.040,243.600 302.600 C 243.383 302.096,243.256 302.022,243.256 302.400 M244.056 305.200 C 244.056 305.530,244.211 306.160,244.400 306.600 C 244.617 307.104,244.744 307.178,244.744 306.800 C 244.744 306.470,244.589 305.840,244.400 305.400 C 244.183 304.896,244.056 304.822,244.056 305.200 M244.856 308.000 C 244.856 308.330,245.011 308.960,245.200 309.400 C 245.417 309.904,245.544 309.978,245.544 309.600 C 245.544 309.270,245.389 308.640,245.200 308.200 C 244.983 307.696,244.856 307.622,244.856 308.000 M286.629 311.829 C 286.481 312.415,286.438 312.972,286.532 313.066 C 286.627 313.160,286.824 312.758,286.971 312.171 C 287.119 311.585,287.162 311.028,287.068 310.934 C 286.973 310.840,286.776 311.242,286.629 311.829 M281.861 328.898 L 281.587 329.991 266.294 330.100 L 251.000 330.210 266.286 330.305 C 282.746 330.407,282.992 330.376,282.294 328.281 C 282.207 328.020,282.012 328.298,281.861 328.898 " stroke="none" fill="#b4a49c" fill-rule="evenodd"></path></g></svg>