<?xml version="1.0" standalone="no"?>
<!DOCTYPE svg PUBLIC "-//W3C//DTD SVG 20010904//EN"
 "http://www.w3.org/TR/2001/REC-SVG-20010904/DTD/svg10.dtd">
<svg version="1.0" xmlns="http://www.w3.org/2000/svg"
 width="500.000000pt" height="500.000000pt" viewBox="0 0 500.000000 500.000000"
 preserveAspectRatio="xMidYMid meet">
<metadata>
Created by potrace 1.14, written by Peter Selinger 2001-2017
</metadata>
<g transform="translate(0.000000,500.000000) scale(0.100000,-0.100000)"
fill="#000000" stroke="none">
<path d="M3611 4958 c-10 -24 -261 -610 -557 -1303 l-539 -1260 -3 858 -2 857
-240 0 -240 0 0 -325 0 -325 -275 0 -275 0 0 325 0 325 -235 0 -235 0 0 -875
0 -875 235 0 235 0 0 355 0 355 275 0 275 0 0 -355 0 -355 498 0 498 0 153
-522 c85 -288 156 -526 160 -530 3 -4 66 203 140 460 74 257 143 495 153 530
l19 62 269 0 270 0 0 -745 0 -745 -186 0 -186 0 3 535 c2 294 2 529 0 523 -3
-7 -70 -247 -151 -533 l-146 -520 -191 -3 -192 -2 -19 62 c-10 35 -79 276
-152 535 -74 260 -136 471 -138 469 -2 -3 1 -89 7 -193 6 -104 11 -343 11
-531 l0 -342 -180 0 -180 0 0 733 -1 732 -493 -1150 c-271 -632 -495 -1158
-499 -1167 -6 -17 81 -18 1748 -18 l1755 0 0 2500 0 2500 -685 0 -686 0 -18
-42z"/>
</g>
</svg>
